<svg width="14" height="14" viewBox="0 0 14 14" fill="none" xmlns="http://www.w3.org/2000/svg">
<g id="Group">
<path id="Vector" d="M7.55251 0.564325C7.55251 0.414896 7.61188 0.271586 7.71754 0.165923C7.8232 0.0602605 7.96651 0.000899772 8.11594 0.000899772C9.60973 0.00254024 11.0419 0.596674 12.0981 1.65295C13.1544 2.70922 13.7486 4.14136 13.7502 5.63515C13.7502 5.78458 13.6908 5.92789 13.5852 6.03356C13.4795 6.13922 13.3362 6.19858 13.1868 6.19858C13.0373 6.19858 12.894 6.13922 12.7884 6.03356C12.6827 5.92789 12.6233 5.78458 12.6233 5.63515C12.622 4.44013 12.1467 3.29443 11.3017 2.44942C10.4567 1.60441 9.31097 1.12909 8.11594 1.12775C7.96651 1.12775 7.8232 1.06839 7.71754 0.962727C7.61188 0.857064 7.55251 0.713755 7.55251 0.564325ZM8.11594 3.38145C8.71366 3.38145 9.2869 3.6189 9.70955 4.04155C10.1322 4.4642 10.3696 5.03744 10.3696 5.63515C10.3696 5.78458 10.429 5.92789 10.5347 6.03356C10.6403 6.13922 10.7836 6.19858 10.9331 6.19858C11.0825 6.19858 11.2258 6.13922 11.3315 6.03356C11.4371 5.92789 11.4965 5.78458 11.4965 5.63515C11.4956 4.73885 11.1391 3.87951 10.5054 3.24573C9.87158 2.61195 9.01224 2.2555 8.11594 2.2546C7.96651 2.2546 7.8232 2.31396 7.71754 2.41963C7.61188 2.52529 7.55251 2.6686 7.55251 2.81803C7.55251 2.96746 7.61188 3.11077 7.71754 3.21643C7.8232 3.32209 7.96651 3.38145 8.11594 3.38145ZM13.2392 9.43208C13.5657 9.75949 13.749 10.203 13.749 10.6654C13.749 11.1278 13.5657 11.5713 13.2392 11.8988L12.7264 12.4898C8.112 16.9076 -3.11707 5.68136 1.23257 1.05225L1.88051 0.488826C2.20829 0.171436 2.64786 -0.0041434 3.1041 7.42649e-05C3.56035 0.00429193 3.99659 0.187967 4.31845 0.511363C4.33592 0.528829 5.37995 1.88499 5.37995 1.88499C5.68973 2.21044 5.86218 2.64276 5.86145 3.09208C5.86072 3.5414 5.68685 3.97315 5.376 4.29758L4.72356 5.11793C5.08463 5.99525 5.61549 6.79257 6.28566 7.46409C6.95582 8.1356 7.75207 8.66808 8.62866 9.03092L9.45407 8.37453C9.77855 8.06392 10.2102 7.89026 10.6594 7.88963C11.1086 7.889 11.5407 8.06145 11.8661 8.37115C11.8661 8.37115 13.2217 9.41461 13.2392 9.43208ZM12.4639 10.2513C12.4639 10.2513 11.1156 9.21403 11.0982 9.19657C10.9821 9.08148 10.8252 9.0169 10.6618 9.0169C10.4983 9.0169 10.3415 9.08148 10.2254 9.19657C10.2102 9.21234 9.07376 10.1178 9.07376 10.1178C8.99718 10.1787 8.90604 10.2187 8.80932 10.2337C8.7126 10.2487 8.61363 10.2383 8.52217 10.2034C7.38656 9.7806 6.35509 9.11867 5.49761 8.26245C4.64013 7.40624 3.97668 6.37574 3.55219 5.24076C3.51456 5.14805 3.50229 5.04699 3.51664 4.94797C3.531 4.84894 3.57147 4.75553 3.63389 4.67733C3.63389 4.67733 4.53931 3.54034 4.55453 3.52569C4.66962 3.40962 4.73419 3.25278 4.73419 3.08932C4.73419 2.92586 4.66962 2.76902 4.55453 2.65294C4.53706 2.63604 3.49979 1.28664 3.49979 1.28664C3.38198 1.181 3.22823 1.12442 3.07004 1.12851C2.91186 1.1326 2.76122 1.19703 2.64902 1.30861L2.00108 1.87204C-1.17776 5.69431 8.55316 14.8855 11.9027 11.7201L12.416 11.1286C12.5363 11.0171 12.6085 10.8633 12.6175 10.6996C12.6264 10.5359 12.5713 10.3751 12.4639 10.2513Z" fill="#0077B5"/>
</g>
</svg>
