<svg width="21" height="21" viewBox="0 0 21 21" fill="none" xmlns="http://www.w3.org/2000/svg">
<g id="Group 12560">
<circle id="Ellipse 216" cx="10.5" cy="10.5" r="10.5" fill="#00A0DC" fill-opacity="0.15"/>
<g id="Group">
<path id="Vector" d="M10.9375 9.62501C10.0931 9.62501 9.40625 10.3119 9.40625 11.1563C9.40625 12.0006 10.0931 12.6875 10.9375 12.6875C11.7819 12.6875 12.4687 12.0006 12.4687 11.1563C12.4687 10.3119 11.7819 9.62501 10.9375 9.62501ZM10.9375 11.8125C10.5757 11.8125 10.2812 11.5181 10.2812 11.1563C10.2812 10.7944 10.5757 10.5 10.9375 10.5C11.2993 10.5 11.5937 10.7944 11.5937 11.1563C11.5937 11.5181 11.2993 11.8125 10.9375 11.8125ZM14.4152 7.67201L12.8909 6.14688C12.6071 5.86169 12.2696 5.63559 11.8979 5.48165C11.5262 5.3277 11.1276 5.24897 10.7253 5.25001H8.75C7.54381 5.25001 6.5625 6.23132 6.5625 7.43751V13.5625C6.5625 14.7687 7.54381 15.75 8.75 15.75H13.125C14.3312 15.75 15.3125 14.7687 15.3125 13.5625V9.83719C15.3136 9.43482 15.2348 9.03622 15.0808 8.66449C14.9268 8.29276 14.7005 7.95571 14.4152 7.67201ZM13.7966 8.29107C13.9357 8.42976 14.0534 8.58419 14.1487 8.75044H12.2496C12.0081 8.75044 11.8121 8.55401 11.8121 8.31294V6.41332C11.9783 6.5087 12.1327 6.62638 12.2719 6.76551L13.7961 8.29063L13.7966 8.29107ZM9.70025 14.8754C9.88093 14.3662 10.367 14.0004 10.9375 14.0004C11.508 14.0004 11.9941 14.3662 12.1747 14.8754H9.70025ZM14.4375 13.5629C14.4375 14.2866 13.8486 14.8754 13.125 14.8754H13.0808C12.8774 13.8784 11.9936 13.1254 10.9375 13.1254C9.88137 13.1254 8.99718 13.8784 8.79419 14.8754H8.75C8.02637 14.8754 7.4375 14.2866 7.4375 13.5629V7.43751C7.4375 6.71388 8.02637 6.12501 8.75 6.12501H10.7253C10.7966 6.12501 10.8675 6.12851 10.9375 6.13507V8.31251C10.9375 9.03613 11.5264 9.62501 12.25 9.62501H14.4274C14.434 9.69501 14.4375 9.76588 14.4375 9.83719V13.5629Z" fill="#00A0DC" fill-opacity="0.7"/>
</g>
</g>
</svg>
