<svg width="12" height="14" viewBox="0 0 12 14" fill="none" xmlns="http://www.w3.org/2000/svg">
<g id="Group">
<path id="Vector" d="M5.62499 5.62501C4.53937 5.62501 3.65625 6.50813 3.65625 7.59376C3.65625 8.67938 4.53937 9.5625 5.62499 9.5625C6.71062 9.5625 7.59374 8.67938 7.59374 7.59376C7.59374 6.50813 6.71062 5.62501 5.62499 5.62501ZM5.62499 8.4375C5.15981 8.4375 4.78125 8.05894 4.78125 7.59376C4.78125 7.12857 5.15981 6.75001 5.62499 6.75001C6.09018 6.75001 6.46874 7.12857 6.46874 7.59376C6.46874 8.05894 6.09018 8.4375 5.62499 8.4375ZM10.0963 3.11401L8.13655 1.15314C7.77168 0.786465 7.33773 0.495761 6.85981 0.297833C6.38188 0.099906 5.86947 -0.00131843 5.35218 1.29649e-05H2.8125C1.26169 1.29649e-05 0 1.2617 0 2.81251V10.6875C0 12.2383 1.26169 13.5 2.8125 13.5H8.43749C9.9883 13.5 11.25 12.2383 11.25 10.6875V5.89782C11.2514 5.38048 11.1501 4.868 10.9521 4.39006C10.7541 3.91212 10.4632 3.47877 10.0963 3.11401ZM9.30093 3.90995C9.4798 4.08826 9.63112 4.28682 9.75374 4.50057H7.31193C7.00143 4.50057 6.74943 4.24801 6.74943 3.93807V1.4957C6.96318 1.61832 7.16174 1.76964 7.34062 1.94851L9.30037 3.90938L9.30093 3.90995ZM4.03425 12.3756C4.26656 11.7208 4.8915 11.2506 5.62499 11.2506C6.35849 11.2506 6.98343 11.7208 7.21574 12.3756H4.03425ZM10.125 10.6881C10.125 11.6184 9.36787 12.3756 8.43749 12.3756H8.38068C8.11912 11.0936 6.98287 10.1256 5.62499 10.1256C4.26712 10.1256 3.13031 11.0936 2.86931 12.3756H2.8125C1.88212 12.3756 1.125 11.6184 1.125 10.6881V2.81251C1.125 1.88214 1.88212 1.12501 2.8125 1.12501H5.35218C5.44387 1.12501 5.53499 1.12951 5.62499 1.13795V3.93751C5.62499 4.86788 6.38212 5.62501 7.31249 5.62501H10.1121C10.1205 5.71501 10.125 5.80613 10.125 5.89782V10.6881Z" fill="#0077B5"/>
</g>
</svg>
