<svg width="21" height="21" viewBox="0 0 21 21" fill="none" xmlns="http://www.w3.org/2000/svg">
<g id="Group 12559">
<circle id="Ellipse 216" cx="10.5" cy="10.5" r="10.5" fill="#00A0DC" fill-opacity="0.15"/>
<g id="Group">
<path id="Vector" d="M10.9297 5.68891C10.9297 5.57269 10.9758 5.46123 11.058 5.37905C11.1402 5.29687 11.2516 5.2507 11.3679 5.2507C12.5297 5.25198 13.6436 5.71407 14.4651 6.53561C15.2866 7.35714 15.7487 8.47101 15.75 9.63284C15.75 9.74906 15.7038 9.86052 15.6217 9.9427C15.5395 10.0249 15.428 10.071 15.3118 10.071C15.1956 10.071 15.0841 10.0249 15.0019 9.9427C14.9197 9.86052 14.8736 9.74906 14.8736 9.63284C14.8725 8.70338 14.5028 7.8123 13.8456 7.15508C13.1884 6.49786 12.2973 6.12817 11.3679 6.12713C11.2516 6.12713 11.1402 6.08096 11.058 5.99878C10.9758 5.9166 10.9297 5.80513 10.9297 5.68891ZM11.3679 7.87998C11.8328 7.87998 12.2786 8.06466 12.6073 8.39338C12.936 8.7221 13.1207 9.16795 13.1207 9.63284C13.1207 9.74906 13.1669 9.86052 13.2491 9.9427C13.3312 10.0249 13.4427 10.071 13.5589 10.071C13.6752 10.071 13.7866 10.0249 13.8688 9.9427C13.951 9.86052 13.9971 9.74906 13.9971 9.63284C13.9965 8.93572 13.7192 8.26736 13.2263 7.77442C12.7333 7.28149 12.065 7.00425 11.3679 7.00355C11.2516 7.00355 11.1402 7.04972 11.058 7.1319C10.9758 7.21408 10.9297 7.32555 10.9297 7.44177C10.9297 7.55799 10.9758 7.66945 11.058 7.75163C11.1402 7.83381 11.2516 7.87998 11.3679 7.87998ZM15.3525 12.586C15.6065 12.8406 15.7491 13.1856 15.7491 13.5452C15.7491 13.9048 15.6065 14.2498 15.3525 14.5045L14.9538 14.9641C11.3648 18.4002 2.6312 9.66877 6.01421 6.06841L6.51816 5.63019C6.7731 5.38334 7.11497 5.24678 7.46983 5.25006C7.82468 5.25334 8.16397 5.39619 8.41431 5.64772C8.42789 5.66131 9.2399 6.71609 9.2399 6.71609C9.48084 6.96921 9.61497 7.30545 9.6144 7.65492C9.61383 8.00438 9.4786 8.34018 9.23683 8.59252L8.72938 9.23056C9.01021 9.9129 9.4231 10.533 9.94433 11.0553C10.4656 11.5776 11.0849 11.9917 11.7666 12.2739L12.4086 11.7634C12.661 11.5218 12.9967 11.3868 13.3461 11.3863C13.6954 11.3858 14.0316 11.5199 14.2846 11.7608C14.2846 11.7608 15.339 12.5724 15.3525 12.586ZM14.7496 13.2231C14.7496 13.2231 13.7009 12.4164 13.6873 12.4028C13.5971 12.3133 13.4751 12.263 13.3479 12.263C13.2208 12.263 13.0988 12.3133 13.0085 12.4028C12.9967 12.4151 12.1128 13.1193 12.1128 13.1193C12.0533 13.1667 11.9824 13.1977 11.9072 13.2094C11.8319 13.2211 11.755 13.213 11.6838 13.1859C10.8006 12.857 9.99833 12.3422 9.33141 11.6763C8.6645 11.0103 8.14849 10.2088 7.81834 9.32609C7.78906 9.25398 7.77952 9.17538 7.79069 9.09836C7.80185 9.02135 7.83333 8.94869 7.88188 8.88787C7.88188 8.88787 8.58609 8.00356 8.59792 7.99216C8.68743 7.90189 8.73765 7.7799 8.73765 7.65277C8.73765 7.52563 8.68743 7.40365 8.59792 7.31337C8.58433 7.30022 7.77758 6.2507 7.77758 6.2507C7.68595 6.16854 7.56636 6.12454 7.44333 6.12772C7.3203 6.13089 7.20315 6.18101 7.11588 6.26779L6.61193 6.70601C4.13953 9.67885 11.7079 16.8274 14.3131 14.3655L14.7123 13.9054C14.8059 13.8188 14.8621 13.6991 14.869 13.5718C14.876 13.4445 14.8331 13.3194 14.7496 13.2231Z" fill="#00A0DC" fill-opacity="0.8"/>
</g>
</g>
</svg>
